<svg width="36" height="36" viewBox="0 0 36 36" fill="none" xmlns="http://www.w3.org/2000/svg">
<circle cx="18" cy="18" r="18" fill="white"/>
<rect x="8.40527" y="11.3301" width="14.175" height="9.045" fill="#197AFF"/>
<path fill-rule="evenodd" clip-rule="evenodd" d="M11.6 8.36V8.72H11.96H12.32V8.36V8H11.96H11.6V8.36ZM13.04 8.36V8.72H15.2H17.36V8.36V8H15.2H13.04V8.36ZM14.48 9.8V10.16H16.64H18.8V9.8V9.44H16.64H14.48V9.8ZM8.11048 10.9905L8 11.1009V17.36V23.6191L8.11048 23.7295C8.21726 23.8364 8.24188 23.84 8.85298 23.84C9.35716 23.84 9.485 23.8524 9.485 23.9015C9.485 24.0456 9.81449 24.6069 9.9989 24.7769C10.2184 24.9792 10.5652 25.1702 10.8236 25.2311C10.9336 25.2571 10.4708 25.2725 9.49625 25.2755L8 25.28V25.64V26H18.8H29.6V25.64V25.28L28.1038 25.277C26.8313 25.2744 26.6378 25.2656 26.81 25.2182C27.3334 25.0741 27.7154 24.7618 27.9557 24.2815C28.0433 24.1063 28.115 23.9353 28.115 23.9015C28.115 23.8524 28.2428 23.84 28.747 23.84C29.3581 23.84 29.3827 23.8364 29.4895 23.7295L29.6 23.6191V21.5216C29.6 20.2137 29.5831 19.3925 29.5551 19.3403C29.5305 19.2941 29.1257 19.0373 28.6556 18.7695L27.8009 18.2825L27.8005 16.8477C27.8001 15.854 27.7832 15.356 27.7453 15.2277C27.6722 14.9805 27.2995 14.6078 27.0523 14.5347C26.9198 14.4956 26.333 14.48 24.9935 14.48H23.12V12.7905V11.1009L23.0095 10.9905L22.8991 10.88H15.56H8.22091L8.11048 10.9905ZM22.4 15.92V20.24H15.56H8.72V15.92V11.6H15.56H22.4V15.92ZM9.91048 14.5905L9.8 14.7009V16.3905V18.08H10.16H10.52V17.36V16.64H11.06H11.6V16.28V15.92H11.06H10.52V15.56V15.2H11.24H11.96V14.84V14.48H10.9905C10.021 14.48 10.0209 14.48 9.91048 14.5905ZM12.7905 14.5905L12.68 14.7009V16.3905V18.08H13.04H13.4V17.36V16.64H13.8295C14.2256 16.64 14.2677 16.6486 14.3695 16.7505C14.476 16.8569 14.48 16.8833 14.48 17.4705V18.08H14.84H15.2V17.4567C15.2 16.8202 15.165 16.6263 15.0101 16.4038C14.9251 16.2818 14.9251 16.2782 15.0101 16.1562C15.3115 15.7234 15.2553 15.2072 14.864 14.816C14.5654 14.5173 14.4232 14.48 13.584 14.48C12.9187 14.48 12.898 14.4829 12.7905 14.5905ZM16.0305 14.5905L15.92 14.7009V16.28V17.8591L16.0305 17.9695C16.1409 18.08 16.141 18.08 17.1105 18.08H18.08V17.72V17.36H17.36H16.64V17V16.64H17.18H17.72V16.28V15.92H17.18H16.64V15.56V15.2H17.36H18.08V14.84V14.48H17.1105C16.141 14.48 16.1409 14.48 16.0305 14.5905ZM18.9105 14.5905L18.8 14.7009V16.28V17.8591L18.9105 17.9695C19.0209 18.08 19.021 18.08 19.9905 18.08H20.96V17.72V17.36H20.24H19.52V17V16.64H20.06H20.6V16.28V15.92H20.06H19.52V15.56V15.2H20.24H20.96V14.84V14.48H19.9905C19.021 14.48 19.0209 14.48 18.9105 14.5905ZM14.3695 15.3105C14.4392 15.3801 14.48 15.4723 14.48 15.56C14.48 15.6477 14.4392 15.7399 14.3695 15.8095C14.2677 15.9114 14.2256 15.92 13.8295 15.92H13.4V15.56V15.2H13.8295C14.2256 15.2 14.2677 15.2086 14.3695 15.3105ZM24.92 16.8895V18.5791L25.0305 18.6895L25.1409 18.8H26.1998H27.2586L28.0682 19.2613C29.1025 19.8505 29.1122 19.88 28.2705 19.88C27.6833 19.88 27.6569 19.884 27.5505 19.9905C27.4409 20.1 27.44 20.1079 27.44 20.96C27.44 21.8121 27.4409 21.82 27.5505 21.9295C27.6569 22.036 27.6833 22.04 28.2705 22.04H28.88V22.58V23.12H28.4975C28.2042 23.12 28.115 23.1056 28.115 23.0585C28.115 23.0247 28.0439 22.855 27.9571 22.6813C27.7651 22.2977 27.495 22.0377 27.0881 21.8449C26.8163 21.7161 26.7466 21.7025 26.36 21.7025C25.9734 21.7025 25.9037 21.7161 25.6319 21.8449C25.225 22.0377 24.9549 22.2977 24.763 22.6813C24.6761 22.855 24.605 23.0247 24.605 23.0585C24.605 23.108 24.4601 23.12 23.8625 23.12H23.12V19.16V15.2H24.02H24.92V16.8895ZM26.9695 15.3105L27.08 15.4209V16.7505V18.08H26.36H25.64V16.64V15.2H26.2495C26.8367 15.2 26.8631 15.2041 26.9695 15.3105ZM25.28 19.88V20.24H26H26.72V19.88V19.52H26H25.28V19.88ZM28.88 20.96V21.32H28.52H28.16V20.96V20.6H28.52H28.88V20.96ZM22.4 22.04V23.12H19.3175C16.7423 23.12 16.235 23.1099 16.235 23.0585C16.235 23.0247 16.1639 22.855 16.0771 22.6813C15.8851 22.2977 15.615 22.0377 15.2081 21.8449C14.9359 21.716 14.8669 21.7025 14.4777 21.7025C14.0712 21.7025 14.0291 21.7117 13.7043 21.8722C13.3674 22.0388 13.0487 22.3282 12.9374 22.5688C12.9116 22.6245 12.8768 22.67 12.86 22.67C12.8432 22.67 12.8084 22.6245 12.7826 22.5688C12.6713 22.3282 12.3526 22.0388 12.0157 21.8722C11.6909 21.7117 11.6488 21.7025 11.2423 21.7025C10.8531 21.7025 10.7841 21.716 10.5119 21.8449C10.105 22.0377 9.83492 22.2977 9.64295 22.6813C9.5561 22.855 9.485 23.0247 9.485 23.0585C9.485 23.1056 9.39577 23.12 9.1025 23.12H8.72V22.04V20.96H15.56H22.4V22.04ZM11.5723 22.4547C11.959 22.569 12.32 23.064 12.32 23.48C12.32 24.0376 11.7976 24.56 11.24 24.56C10.957 24.56 10.729 24.4571 10.496 24.224C10.0407 23.7688 10.0407 23.1917 10.496 22.7355C10.8116 22.4191 11.1517 22.3304 11.5723 22.4547ZM14.8123 22.4547C15.0595 22.5278 15.4322 22.9005 15.5053 23.1477C15.6299 23.5696 15.542 23.906 15.224 24.224C14.991 24.4571 14.7631 24.56 14.48 24.56C13.9224 24.56 13.4 24.0376 13.4 23.48C13.4 23.1972 13.503 22.969 13.736 22.7355C14.0516 22.4191 14.3917 22.3304 14.8123 22.4547ZM26.6923 22.4547C27.079 22.569 27.44 23.064 27.44 23.48C27.44 24.0376 26.9176 24.56 26.36 24.56C26.077 24.56 25.849 24.4571 25.616 24.224C25.1607 23.7688 25.1607 23.1917 25.616 22.7355C25.9316 22.4191 26.2717 22.3304 26.6923 22.4547ZM10.88 23.48V23.84H11.24H11.6V23.48V23.12H11.24H10.88V23.48ZM14.12 23.48V23.84H14.48H14.84V23.48V23.12H14.48H14.12V23.48ZM26 23.48V23.84H26.36H26.72V23.48V23.12H26.36H26V23.48ZM24.605 23.9015C24.605 24.0456 24.9345 24.6069 25.1189 24.7769C25.3384 24.9792 25.6852 25.1702 25.9436 25.2311C26.0444 25.2549 23.818 25.271 20.42 25.271C17.022 25.271 14.7956 25.2549 14.8964 25.2311C15.1548 25.1702 15.5016 24.9792 15.7211 24.7769C15.9055 24.6069 16.235 24.0456 16.235 23.9015C16.235 23.8499 16.913 23.84 20.42 23.84C23.927 23.84 24.605 23.8499 24.605 23.9015ZM12.9374 24.3913C13.09 24.7211 13.6383 25.1315 14.0578 25.23C14.1754 25.2575 13.7839 25.271 12.86 25.271C11.9669 25.271 11.5465 25.2571 11.6564 25.2311C11.949 25.1622 12.285 24.9627 12.5281 24.7137C12.6573 24.5815 12.776 24.432 12.792 24.3816C12.8299 24.2623 12.8793 24.2656 12.9374 24.3913Z" fill="#11346F"/>
<path fill-rule="evenodd" clip-rule="evenodd" d="M9.79999 14.7009L9.91046 14.5905C10.0209 14.48 10.021 14.48 10.9905 14.48H11.96V14.84V15.2H11.24H10.52V15.56V15.92H11.06H11.6V16.28V16.64H11.06H10.52V17.36V18.08H10.16H9.79999V16.3905V14.7009ZM12.68 14.7009L12.7905 14.5905C12.898 14.4829 12.9187 14.48 13.584 14.48C14.4232 14.48 14.5654 14.5173 14.864 14.816C15.2552 15.2072 15.3115 15.7234 15.01 16.1562C14.9251 16.2781 14.9251 16.2818 15.01 16.4037C15.165 16.6263 15.2 16.8202 15.2 17.4567V18.08H14.84H14.48V17.4705C14.48 16.8832 14.4759 16.8568 14.3695 16.7505C14.2677 16.6486 14.2256 16.64 13.8295 16.64H13.4V17.36V18.08H13.04H12.68V16.3905V14.7009ZM15.92 14.7009L16.0305 14.5905C16.1409 14.48 16.141 14.48 17.1105 14.48H18.08V14.84V15.2H17.36H16.64V15.56V15.92H17.18H17.72V16.28V16.64H17.18H16.64V17V17.36H17.36H18.08V17.72V18.08H17.1105H17.1104C16.141 18.08 16.1409 18.08 16.0305 17.9695L15.92 17.8591V16.28V14.7009ZM18.8 14.7009L18.9105 14.5905C19.0209 14.48 19.021 14.48 19.9905 14.48H20.96V14.84V15.2H20.24H19.52V15.56V15.92H20.06H20.6V16.28V16.64H20.06H19.52V17V17.36H20.24H20.96V17.72V18.08H19.9905H19.9904C19.021 18.08 19.0209 18.08 18.9105 17.9695L18.8 17.8591V16.28V14.7009ZM14.48 15.56C14.48 15.4723 14.4392 15.3801 14.3695 15.3105C14.2677 15.2086 14.2256 15.2 13.8295 15.2H13.4V15.56V15.92H13.8295C14.2256 15.92 14.2677 15.9114 14.3695 15.8095C14.4392 15.7399 14.48 15.6476 14.48 15.56Z" fill="white"/>
</svg>
