<svg width="17" height="17" viewBox="0 0 17 17" fill="none" xmlns="http://www.w3.org/2000/svg">
<path d="M8.49998 0.583496C4.1379 0.583496 0.583313 4.13808 0.583313 8.50016C0.583313 12.8622 4.1379 16.4168 8.49998 16.4168C12.8621 16.4168 16.4166 12.8622 16.4166 8.50016C16.4166 4.13808 12.8621 0.583496 8.49998 0.583496ZM12.2841 6.67933L7.7954 11.1681C7.68456 11.2789 7.53415 11.3422 7.37581 11.3422C7.21748 11.3422 7.06706 11.2789 6.95623 11.1681L4.71581 8.92766C4.48623 8.69808 4.48623 8.31808 4.71581 8.0885C4.9454 7.85891 5.3254 7.85891 5.55498 8.0885L7.37581 9.90933L11.445 5.84016C11.6746 5.61058 12.0546 5.61058 12.2841 5.84016C12.5137 6.06975 12.5137 6.44183 12.2841 6.67933Z" fill="#197AFF"/>
</svg>
