<svg width="36" height="36" viewBox="0 0 36 36" fill="none" xmlns="http://www.w3.org/2000/svg">
<circle cx="18" cy="18" r="18" fill="white"/>
<circle cx="18.0004" cy="18" r="7.37838" fill="#197AFF"/>
<path fill-rule="evenodd" clip-rule="evenodd" d="M17.6186 5.03709C17.1457 5.15033 16.6736 5.50979 16.0668 6.21846C15.8622 6.45753 15.8193 6.48175 15.6008 6.48175C15.4295 6.48175 15.2869 6.43497 15.106 6.3194C14.6123 6.00412 14.2895 5.9075 13.7161 5.90346C13.249 5.90019 13.1583 5.91637 12.9105 6.04724C12.3989 6.3174 12.0069 6.85446 11.8027 7.56501C11.5967 8.28155 11.4364 8.39762 10.7698 8.31337C10.2837 8.2519 9.65499 8.31952 9.31527 8.4699C8.52834 8.81816 8.14667 9.65914 8.28279 10.745C8.32767 11.1031 8.32418 11.2397 8.26651 11.3776C8.16285 11.6258 8.08047 11.6786 7.60733 11.7996C6.85148 11.993 6.32455 12.3426 6.02943 12.8464C5.91319 13.0448 5.8789 13.1865 5.8605 13.5439C5.83408 14.0576 5.94388 14.466 6.26849 15.0614C6.51702 15.5173 6.52982 15.8415 6.30605 16.0133C6.22222 16.0777 6.02455 16.2284 5.86671 16.3483C5.31834 16.765 4.99994 17.3901 5 18.0499C5 18.3853 5.02781 18.5055 5.17391 18.8024C5.33978 19.1395 5.54826 19.3674 6.22887 19.9555C6.5399 20.2242 6.54256 20.4503 6.24139 21.0139C5.85159 21.7435 5.74804 22.4065 5.93718 22.9619C6.12954 23.5267 6.76572 24.0086 7.59154 24.2151C8.05576 24.3312 8.14335 24.3836 8.26418 24.6173C8.33105 24.7467 8.33493 24.856 8.28645 25.2462C8.12933 26.5117 8.58219 27.3378 9.59438 27.6322C9.85222 27.7072 10.0565 27.7204 10.5987 27.6969C11.2322 27.6695 11.2917 27.6759 11.4589 27.7881C11.5832 27.8715 11.6608 27.9849 11.7111 28.1564C12.0424 29.2879 12.4824 29.86 13.1812 30.0676C13.7258 30.2294 14.2913 30.1314 14.9903 29.754C15.6301 29.4086 15.8164 29.4427 16.2405 29.9828C16.7563 30.6396 17.3791 31.0034 17.982 31C18.6752 30.996 19.153 30.6918 19.9548 29.7441C20.1938 29.4616 20.4347 29.4652 21.0135 29.76C22.0556 30.2907 22.8076 30.2746 23.4267 29.7085C23.7765 29.3886 24.0233 28.9543 24.1831 28.3774C24.2528 28.1257 24.3512 27.9098 24.4341 27.8269C24.5675 27.6935 24.5901 27.6904 25.4729 27.6871C26.3443 27.6837 26.3863 27.6782 26.6891 27.5295C27.4623 27.1496 27.8379 26.2817 27.688 25.2212C27.6345 24.8425 27.6368 24.7393 27.7022 24.6128C27.8177 24.3894 27.8829 24.3502 28.4455 24.1662C29.0459 23.97 29.3621 23.7955 29.6627 23.4948C29.9672 23.1902 30.079 22.9298 30.1047 22.4655C30.1312 21.9867 30.028 21.5922 29.7222 21.0023C29.5782 20.7245 29.5057 20.5118 29.5057 20.3673C29.5057 20.1741 29.538 20.1217 29.7955 19.898C30.8568 18.976 31.1655 18.3336 30.921 17.5558C30.7996 17.1699 30.3712 16.5973 29.9746 16.2913C29.8043 16.1599 29.6292 16.0011 29.5853 15.9385C29.446 15.7395 29.4896 15.4445 29.7227 15.0083C29.842 14.7849 29.9791 14.4667 30.0274 14.3011C30.1263 13.9615 30.142 13.4203 30.061 13.1377C29.9227 12.6555 29.4046 12.1955 28.7114 11.9397C28.4931 11.8591 28.2035 11.7514 28.0679 11.7003C27.9045 11.6388 27.7862 11.5475 27.7176 11.4299C27.6234 11.2685 27.6198 11.2128 27.6791 10.8221C27.9346 9.13572 26.9079 8.07968 25.2322 8.30533C24.8818 8.3525 24.7527 8.34956 24.6129 8.29108C24.3744 8.19137 24.333 8.12823 24.1897 7.64577C23.9562 6.85989 23.5486 6.27882 23.0529 6.02529C22.776 5.88361 22.2557 5.83955 21.8513 5.92358C21.68 5.95911 21.319 6.09923 21.049 6.23487C20.4463 6.53768 20.2044 6.55752 19.9861 6.322C19.9047 6.23415 19.7441 6.03643 19.6294 5.88256C19.1528 5.24379 18.2829 4.87801 17.6186 5.03709ZM18.2803 6.26713C18.3557 6.30155 18.5485 6.49134 18.7088 6.68895C19.2248 7.32522 19.7604 7.6537 20.2822 7.6537C20.6668 7.6537 20.9495 7.57283 21.589 7.27983C22.2073 6.99658 22.4419 6.97325 22.6775 7.17157C22.7953 7.27079 22.8571 7.39318 22.9084 7.62887C23.0958 8.48997 23.6363 9.18694 24.2781 9.39496C24.5456 9.4816 24.7428 9.49779 25.4009 9.48692C26.2975 9.47218 26.4213 9.50965 26.5017 9.81983C26.527 9.91772 26.5259 10.1483 26.4991 10.3322C26.4372 10.7574 26.4789 11.4283 26.5862 11.7368C26.7972 12.3429 27.2164 12.6843 28.1362 12.9991C28.5502 13.1407 28.767 13.246 28.8426 13.3421C29.0143 13.5606 28.9826 13.8429 28.7343 14.3069C28.0724 15.5437 28.243 16.4271 29.3113 17.2943C29.5647 17.5 29.6951 17.6526 29.7576 17.8164C29.8845 18.1487 29.793 18.329 29.3118 18.6945C28.2351 19.5123 28.0567 20.4464 28.7346 21.7153C29.0697 22.3423 29.0082 22.6686 28.5147 22.8809C28.3628 22.9463 28.2058 23.0004 28.1658 23.0013C28.0043 23.0046 27.3224 23.3376 27.0946 23.5242C26.7316 23.8218 26.5181 24.2954 26.4802 24.8866C26.4636 25.1445 26.4721 25.506 26.4989 25.69C26.5574 26.0911 26.5 26.3533 26.3326 26.449C26.248 26.4974 25.9395 26.5204 25.3505 26.5224C24.5934 26.5249 24.4543 26.54 24.1748 26.6505C23.5833 26.8843 23.14 27.4734 22.9325 28.3016C22.8165 28.7648 22.6267 28.9862 22.3454 28.9862C22.24 28.9862 21.8915 28.8673 21.5518 28.7154C20.7835 28.3719 20.415 28.2911 20.0053 28.3762C19.6187 28.4565 19.1645 28.7852 18.7319 29.2978C18.3734 29.7225 18.249 29.8128 18.0181 29.8157C17.7628 29.8188 17.5294 29.6673 17.2341 29.3067C16.8915 28.8883 16.4138 28.528 16.0764 28.4335C15.9207 28.3899 15.6587 28.3723 15.4062 28.3885C15.0492 28.4114 14.91 28.4548 14.4046 28.7006C14.0818 28.8577 13.7469 28.9862 13.6603 28.9862C13.4068 28.9862 13.1881 28.7532 13.0217 28.3059C12.6398 27.2797 12.4054 26.9238 11.9604 26.6953C11.653 26.5374 11.1656 26.4769 10.5215 26.5166C10.0146 26.5478 9.87195 26.5391 9.7351 26.4682C9.64314 26.4207 9.54768 26.3504 9.52286 26.3121C9.49809 26.2738 9.47671 25.8558 9.47527 25.3832C9.47316 24.6479 9.45626 24.4831 9.35842 24.2396C9.11504 23.634 8.67371 23.2679 7.8901 23.0216C7.27243 22.8275 7.18273 22.7805 7.09082 22.6026C6.96727 22.3636 6.99741 22.144 7.20578 21.7647C7.61049 21.0281 7.72434 20.3665 7.53753 19.8368C7.4183 19.4988 7.0645 19.052 6.64937 18.7152C6.21497 18.3629 6.05929 18.0514 6.1866 17.7896C6.22943 17.7014 6.43863 17.4836 6.65142 17.3055C7.73747 16.3968 7.89886 15.5598 7.22943 14.3069C6.98627 13.8519 6.96112 13.6339 7.12129 13.371C7.20711 13.2303 7.2968 13.1744 7.55049 13.104C8.33947 12.8849 8.82457 12.6072 9.11986 12.2055C9.42336 11.7926 9.46984 11.5845 9.47399 10.6204L9.47782 9.74273L9.63078 9.61097C9.77893 9.48338 9.81067 9.47955 10.628 9.49091C11.3518 9.501 11.5145 9.48703 11.768 9.39297C12.3419 9.18006 12.6391 8.79189 12.9742 7.81761C13.2626 6.97929 13.5422 6.8584 14.2797 7.2535C14.8424 7.55498 15.2572 7.6654 15.7064 7.63314C16.2678 7.59278 16.6414 7.3648 17.2293 6.70347C17.4055 6.50531 17.6033 6.31286 17.6689 6.27583C17.8203 6.19036 18.103 6.18637 18.2803 6.26713ZM16.7078 9.83358C14.8982 10.139 13.3607 10.9351 12.0933 12.2228C10.5506 13.7901 9.72713 15.8045 9.72713 18.0111C9.72713 21.9239 12.4211 25.253 16.2815 26.111C17.0798 26.2884 18.4849 26.3149 19.3394 26.1686C21.0752 25.8716 22.6045 25.0772 23.8341 23.834C24.9863 22.669 25.7188 21.3189 26.0856 19.6841C26.1879 19.2283 26.206 18.9761 26.206 18.0111C26.206 17.0461 26.1879 16.7939 26.0856 16.3381C25.9124 15.5661 25.7191 15.0192 25.3742 14.325C24.2075 11.9773 21.9572 10.3023 19.3755 9.85985C18.6433 9.73436 17.3699 9.72183 16.7078 9.83358ZM19.4779 11.0765C20.858 11.3913 21.9662 12.0056 22.9754 13.0153C24.0038 14.0442 24.6337 15.2014 24.9405 16.6254C25.0824 17.2841 25.0824 18.7381 24.9405 19.3968C24.6337 20.8208 24.0038 21.978 22.9754 23.0069C21.9472 24.0356 20.7929 24.6647 19.3671 24.9734C18.6685 25.1247 17.1969 25.1131 16.5077 24.9509C15.0718 24.613 14.0049 24.0236 12.9887 23.0069C11.9603 21.978 11.3304 20.8208 11.0236 19.3968C10.8816 18.7381 10.8816 17.2841 11.0236 16.6254C11.3333 15.1877 11.948 14.0603 12.9906 13.0172C13.8048 12.2025 14.5826 11.7006 15.5936 11.3372C16.0146 11.1859 16.7869 10.9986 17.1787 10.9528C17.6579 10.8968 19.0083 10.9694 19.4779 11.0765Z" fill="#11346F"/>
<mask id="mask0_0_1401" style="mask-type:alpha" maskUnits="userSpaceOnUse" x="11" y="12" width="13" height="12">
<path d="M16.2426 22.5678L12.3777 18.3515L12.0264 17.6488L14.1345 16.2434L16.5939 15.1894L20.1074 13.4326L22.9183 14.838L22.5669 16.5948L20.1074 21.865L16.2426 22.5678Z" fill="#C4C4C4" stroke="black"/>
</mask>
<g mask="url(#mask0_0_1401)">
<path fill-rule="evenodd" clip-rule="evenodd" d="M17.6176 5.03709C17.1447 5.15033 16.6726 5.50979 16.0659 6.21846C15.8612 6.45753 15.8183 6.48175 15.5998 6.48175C15.4285 6.48175 15.2859 6.43497 15.105 6.3194C14.6113 6.00412 14.2885 5.9075 13.7151 5.90346C13.2481 5.90019 13.1573 5.91637 12.9096 6.04724C12.398 6.3174 12.0059 6.85446 11.8017 7.56501C11.5957 8.28155 11.4355 8.39762 10.7688 8.31337C10.2827 8.2519 9.65402 8.31952 9.31429 8.4699C8.52736 8.81816 8.14569 9.65914 8.28182 10.745C8.32669 11.1031 8.3232 11.2397 8.26553 11.3776C8.16187 11.6258 8.07949 11.6786 7.60636 11.7996C6.8505 11.993 6.32358 12.3426 6.02845 12.8464C5.91222 13.0448 5.87792 13.1865 5.85953 13.5439C5.8331 14.0576 5.94291 14.466 6.26751 15.0614C6.51604 15.5173 6.52884 15.8415 6.30507 16.0133C6.22125 16.0777 6.02357 16.2284 5.86573 16.3483C5.31736 16.765 4.99897 17.3901 4.99902 18.0499C4.99902 18.3853 5.02684 18.5055 5.17293 18.8024C5.3388 19.1395 5.54728 19.3674 6.2279 19.9555C6.53892 20.2242 6.54158 20.4503 6.24042 21.0139C5.85061 21.7435 5.74706 22.4065 5.9362 22.9619C6.12856 23.5267 6.76474 24.0086 7.59057 24.2151C8.05478 24.3312 8.14237 24.3836 8.2632 24.6173C8.33007 24.7467 8.33395 24.856 8.28547 25.2462C8.12835 26.5117 8.58121 27.3378 9.59341 27.6322C9.85125 27.7072 10.0556 27.7204 10.5977 27.6969C11.2312 27.6695 11.2908 27.6759 11.4579 27.7881C11.5822 27.8715 11.6598 27.9849 11.7101 28.1564C12.0414 29.2879 12.4815 29.86 13.1802 30.0676C13.7248 30.2294 14.2903 30.1314 14.9893 29.754C15.6291 29.4086 15.8154 29.4427 16.2395 29.9828C16.7553 30.6396 17.3781 31.0034 17.9811 31C18.6742 30.996 19.152 30.6918 19.9539 29.7441C20.1928 29.4616 20.4337 29.4652 21.0125 29.76C22.0546 30.2907 22.8066 30.2746 23.4257 29.7085C23.7755 29.3886 24.0223 28.9543 24.1821 28.3774C24.2518 28.1257 24.3502 27.9098 24.4331 27.8269C24.5665 27.6935 24.5891 27.6904 25.472 27.6871C26.3433 27.6837 26.3853 27.6782 26.6881 27.5295C27.4613 27.1496 27.8369 26.2817 27.687 25.2212C27.6335 24.8425 27.6359 24.7393 27.7012 24.6128C27.8167 24.3894 27.8819 24.3502 28.4445 24.1662C29.0449 23.97 29.3611 23.7955 29.6618 23.4948C29.9662 23.1902 30.078 22.9298 30.1037 22.4655C30.1302 21.9867 30.0271 21.5922 29.7213 21.0023C29.5772 20.7245 29.5047 20.5118 29.5047 20.3673C29.5047 20.1741 29.537 20.1217 29.7945 19.898C30.8558 18.976 31.1645 18.3336 30.92 17.5558C30.7987 17.1699 30.3702 16.5973 29.9737 16.2913C29.8034 16.1599 29.6282 16.0011 29.5844 15.9385C29.4451 15.7395 29.4886 15.4445 29.7217 15.0083C29.841 14.7849 29.9782 14.4667 30.0264 14.3011C30.1254 13.9615 30.141 13.4203 30.06 13.1377C29.9218 12.6555 29.4036 12.1955 28.7104 11.9397C28.4921 11.8591 28.2026 11.7514 28.0669 11.7003C27.9035 11.6388 27.7852 11.5475 27.7166 11.4299C27.6224 11.2685 27.6189 11.2128 27.6781 10.8221C27.9336 9.13572 26.9069 8.07968 25.2312 8.30533C24.8808 8.3525 24.7517 8.34956 24.612 8.29108C24.3735 8.19137 24.3321 8.12823 24.1887 7.64577C23.9552 6.85989 23.5476 6.27882 23.052 6.02529C22.7751 5.88361 22.2547 5.83955 21.8503 5.92358C21.679 5.95911 21.318 6.09923 21.0481 6.23487C20.4453 6.53768 20.2035 6.55752 19.9851 6.322C19.9037 6.23415 19.7431 6.03643 19.6284 5.88256C19.1519 5.24379 18.2819 4.87801 17.6176 5.03709ZM18.2793 6.26713C18.3547 6.30155 18.5475 6.49134 18.7078 6.68895C19.2238 7.32522 19.7595 7.6537 20.2812 7.6537C20.6658 7.6537 20.9486 7.57283 21.5881 7.27983C22.2063 6.99658 22.4409 6.97325 22.6765 7.17157C22.7943 7.27079 22.8562 7.39318 22.9075 7.62887C23.0948 8.48997 23.6353 9.18694 24.2772 9.39496C24.5447 9.4816 24.7418 9.49779 25.3999 9.48692C26.2965 9.47218 26.4203 9.50965 26.5007 9.81983C26.526 9.91772 26.5249 10.1483 26.4981 10.3322C26.4362 10.7574 26.4779 11.4283 26.5853 11.7368C26.7962 12.3429 27.2155 12.6843 28.1353 12.9991C28.5492 13.1407 28.766 13.246 28.8416 13.3421C29.0133 13.5606 28.9816 13.8429 28.7333 14.3069C28.0714 15.5437 28.242 16.4271 29.3103 17.2943C29.5637 17.5 29.6942 17.6526 29.7567 17.8164C29.8835 18.1487 29.792 18.329 29.3108 18.6945C28.2341 19.5123 28.0557 20.4464 28.7337 21.7153C29.0687 22.3423 29.0072 22.6686 28.5137 22.8809C28.3619 22.9463 28.2048 23.0004 28.1648 23.0013C28.0033 23.0046 27.3214 23.3376 27.0936 23.5242C26.7306 23.8218 26.5171 24.2954 26.4792 24.8866C26.4627 25.1445 26.4711 25.506 26.498 25.69C26.5565 26.0911 26.4991 26.3533 26.3316 26.449C26.247 26.4974 25.9386 26.5204 25.3495 26.5224C24.5924 26.5249 24.4533 26.54 24.1738 26.6505C23.5823 26.8843 23.139 27.4734 22.9316 28.3016C22.8155 28.7648 22.6257 28.9862 22.3445 28.9862C22.239 28.9862 21.8905 28.8673 21.5508 28.7154C20.7825 28.3719 20.414 28.2911 20.0043 28.3762C19.6177 28.4565 19.1635 28.7852 18.7309 29.2978C18.3725 29.7225 18.248 29.8128 18.0171 29.8157C17.7618 29.8188 17.5284 29.6673 17.2331 29.3067C16.8905 28.8883 16.4128 28.528 16.0754 28.4335C15.9198 28.3899 15.6578 28.3723 15.4052 28.3885C15.0482 28.4114 14.909 28.4548 14.4036 28.7006C14.0808 28.8577 13.7459 28.9862 13.6594 28.9862C13.4058 28.9862 13.1872 28.7532 13.0207 28.3059C12.6389 27.2797 12.4044 26.9238 11.9594 26.6953C11.652 26.5374 11.1647 26.4769 10.5206 26.5166C10.0136 26.5478 9.87097 26.5391 9.73413 26.4682C9.64216 26.4207 9.5467 26.3504 9.52188 26.3121C9.49712 26.2738 9.47573 25.8558 9.47429 25.3832C9.47219 24.6479 9.45529 24.4831 9.35745 24.2396C9.11407 23.634 8.67273 23.2679 7.88913 23.0216C7.27145 22.8275 7.18175 22.7805 7.08984 22.6026C6.9663 22.3636 6.99643 22.144 7.2048 21.7647C7.60951 21.0281 7.72336 20.3665 7.53655 19.8368C7.41732 19.4988 7.06353 19.052 6.6484 18.7152C6.21399 18.3629 6.05831 18.0514 6.18562 17.7896C6.22845 17.7014 6.43765 17.4836 6.65045 17.3055C7.73649 16.3968 7.89788 15.5598 7.22846 14.3069C6.9853 13.8519 6.96015 13.6339 7.12031 13.371C7.20613 13.2303 7.29583 13.1744 7.54951 13.104C8.33849 12.8849 8.82359 12.6072 9.11889 12.2055C9.42238 11.7926 9.46886 11.5845 9.47302 10.6204L9.47684 9.74273L9.62981 9.61097C9.77795 9.48338 9.8097 9.47955 10.627 9.49091C11.3508 9.501 11.5135 9.48703 11.767 9.39297C12.3409 9.18006 12.6381 8.79189 12.9732 7.81761C13.2616 6.97929 13.5412 6.8584 14.2787 7.2535C14.8414 7.55498 15.2563 7.6654 15.7054 7.63314C16.2669 7.59278 16.6404 7.3648 17.2283 6.70347C17.4045 6.50531 17.6023 6.31286 17.6679 6.27583C17.8193 6.19036 18.102 6.18637 18.2793 6.26713ZM16.7068 9.83358C14.8973 10.139 13.3597 10.9351 12.0923 12.2228C10.5496 13.7901 9.72615 15.8045 9.72615 18.0111C9.72615 21.9239 12.4201 25.253 16.2805 26.111C17.0788 26.2884 18.4839 26.3149 19.3384 26.1686C21.0742 25.8716 22.6035 25.0772 23.8331 23.834C24.9853 22.669 25.7178 21.3189 26.0846 19.6841C26.1869 19.2283 26.205 18.9761 26.205 18.0111C26.205 17.0461 26.1869 16.7939 26.0846 16.3381C25.9114 15.5661 25.7181 15.0192 25.3732 14.325C24.2065 11.9773 21.9563 10.3023 19.3745 9.85985C18.6423 9.73436 17.3689 9.72183 16.7068 9.83358ZM19.4769 11.0765C20.857 11.3913 21.9652 12.0056 22.9744 13.0153C24.0028 14.0442 24.6327 15.2014 24.9395 16.6254C25.0814 17.2841 25.0814 18.7381 24.9395 19.3968C24.6327 20.8208 24.0028 21.978 22.9744 23.0069C21.9462 24.0356 20.7919 24.6647 19.3661 24.9734C18.6675 25.1247 17.196 25.1131 16.5068 24.9509C15.0708 24.613 14.0039 24.0236 12.9877 23.0069C11.9593 21.978 11.3294 20.8208 11.0226 19.3968C10.8807 18.7381 10.8807 17.2841 11.0226 16.6254C11.3324 15.1877 11.947 14.0603 12.9896 13.0172C13.8039 12.2025 14.5816 11.7006 15.5926 11.3372C16.0136 11.1859 16.7859 10.9986 17.1777 10.9528C17.657 10.8968 19.0073 10.9694 19.4769 11.0765ZM19.0503 17.3023L16.8199 19.5313L15.7799 18.501C15.0083 17.7365 14.6943 17.4607 14.5626 17.4322C14.1675 17.3465 13.7713 17.7427 13.8564 18.1384C13.8851 18.272 14.198 18.6223 15.1206 19.5539C15.7949 20.2347 16.414 20.8271 16.4963 20.8703C16.5786 20.9135 16.74 20.9489 16.855 20.9489C17.0566 20.9489 17.1515 20.8616 19.5227 18.4961C20.9798 17.0426 22.0141 15.968 22.0616 15.8584C22.2251 15.481 21.9371 15.0733 21.5071 15.0733C21.2829 15.0733 21.259 15.095 19.0503 17.3023Z" fill="white"/>
</g>
</svg>
